{"title":"60.Minutes.US.2014.10.26.Ebola-Dave.Grohl.Sonic.Highways.XviD.PD","uid":11297245,"size":471234560,"categoryP":"video","categoryS":"tv_shows","magnet":"?xt=urn:btih:e8daf5b2c8d0e6184ebbc2dde69c47af6e59f517&amp;dn=60.Minutes.US.2014.10.26.Ebola-Dave.Grohl.Sonic.Highways.XviD.PD&amp;tr=udp%3A%2F%2Ftracker.openbittorrent.com%3A80&amp;tr=udp%3A%2F%2Fopen.demonii.com%3A1337&amp;tr=udp%3A%2F%2Ftracker.coppersurfer.tk%3A6969&amp;tr=udp%3A%2F%2Fexodus.desync.com%3A6969","seeders":4,"leechers":0,"uploader":"placeborules","files":1,"time":1414391045,"description":"60.Minutes.US.2014.10.26.Ebola-Dave.Grohl.Sonic.Highways.FS.PDTV.XviD.avi\nFS = Full screen\n\n\nVideo\nID                                       : 0\nFormat                                   : MPEG-4 Visual\nFormat profile                           : Advanced Simple@L5\nFormat settings, BVOP                    : 2\nFormat settings, QPel                    : No\nFormat settings, GMC                     : No warppoints\nFormat settings, Matrix                  : Default (H.263)\nMuxing mode                              : Packed bitstream\nCodec ID                                 : XVID\nCodec ID/Hint                            : XviD\nDuration                                 : 43mn 14s\nBit rate                                 : 1 303 Kbps\nWidth                                    : 640 pixels\nHeight                                   : 480 pixels\nDisplay aspect ratio                     : 4:3\nFrame rate                               : 29.970 fps\nColor space                              : YUV\nChroma subsampling                       : 4:2:0\nBit depth                                : 8 bits\nScan type                                : Progressive\nCompression mode                         : Lossy\nBits/(Pixel*Frame)                       : 0.141\nStream size                              : 403 MiB (90%)\nWriting library                          : XviD 1.2.1 (UTC 2008-12-04)\n\nAudio\nID                                       : 1\nFormat                                   : MPEG Audio\nFormat version                           : Version 1\nFormat profile                           : Layer 3\nMode                                     : Joint stereo\nCodec ID                                 : 55\nCodec ID/Hint                            : MP3\nDuration                                 : 43mn 14s\nBit rate mode                            : Variable\nBit rate                                 : 137 Kbps\nMinimum bit rate                         : 32.0 Kbps\nChannel(s)                               : 2 channels\nSampling rate                            : 48.0 KHz\nCompression mode                         : Lossy\nStream size                              : 42.2 MiB (9%)\nAlignment                                : Aligned on interleaves\nInterleave, duration                     : 24 ms (0.72 video frame)\nInterleave, preload duration             : 520 ms\nWriting library                          : LAME3.98r\nEncoding settings                        : -m j -V 4 -q 2 -lowpass 17.5 --vbr-new -b 32","torrent":{"xt":"urn:btih:e8daf5b2c8d0e6184ebbc2dde69c47af6e59f517","amp;dn":"60.Minutes.US.2014.10.26.Ebola-Dave.Grohl.Sonic.Highways.XviD.PD","amp;tr":["udp%3A%2F%2Ftracker.openbittorrent.com%3A80","udp%3A%2F%2Fopen.demonii.com%3A1337","udp%3A%2F%2Ftracker.coppersurfer.tk%3A6969","udp%3A%2F%2Fexodus.desync.com%3A6969"],"infoHash":"e8daf5b2c8d0e6184ebbc2dde69c47af6e59f517","infoHashBuffer":{"type":"Buffer","data":[232,218,245,178,200,208,230,24,78,187,194,221,230,156,71,175,110,89,245,23]},"announce":[],"urlList":[]}}